Coordinates
version=1
nRows=24
nColumns=22
inDegrees=yes

Units are S.I. units (second, meters, Newtons, ...)
If the header above contains a line with 'inDegrees', this indicates whether rotational values are in degrees (yes) or radians (no).

endheader
time	pelvis_tilt	pelvis_list	pelvis_rotation	pelvis_tx	pelvis_ty	pelvis_tz	hip_flexion_r	hip_adduction_r	hip_rotation_r	knee_angle_r	ankle_angle_r	subtalar_angle_r	hip_flexion_l	hip_adduction_l	hip_rotation_l	knee_angle_l	ankle_angle_l	subtalar_angle_l	lumbar_extension	lumbar_bending	lumbar_rotation
      3.00000000	     -8.26299268	      2.30024297	    -19.35623860	      1.15358015	      0.98729519	      0.51887075	     22.97859126	      2.39339933	     -1.98248583	    -26.62615793	     16.82656074	     -3.56453664	     21.78694476	      0.31388974	     -0.16587769	    -23.47262532	     16.38008759	      0.60559055	      1.74571431	      1.80426747	      6.45878027
      3.01000000	     -8.49861951	      2.24104207	    -19.52070544	      1.15559054	      0.98714150	      0.52005341	     22.71343924	      2.64879536	     -1.81378337	    -26.00512830	     16.82970115	     -4.00741823	     21.65418248	      0.10501974	     -0.28520085	    -23.14393963	     16.61507396	      0.53519223	      2.05136564	      2.02361934	      6.37694562
      3.02000000	     -8.75839500	      2.16024507	    -19.65489004	      1.15752881	      0.98689963	      0.52109959	     22.47965011	      2.91110304	     -1.67869917	    -25.40416421	     16.90214095	     -4.16032947	     21.57297583	     -0.11928317	     -0.36815327	    -22.86114495	     16.84690275	      0.49557156	      2.37191493	      2.28034788	      6.28761015
      3.03000000	     -8.99342144	      2.05769366	    -19.74959444	      1.15944079	      0.98669817	      0.52201883	     22.21157883	      3.16517374	     -1.57157081	    -24.79467185	     16.92585012	     -4.37991642	     21.48055429	     -0.34044073	     -0.41801044	    -22.60087075	     17.07041740	      0.44200429	      2.65786365	      2.55460259	      6.14602365
      3.04000000	     -9.20847068	      1.94680422	    -19.80724733	      1.16132468	      0.98655502	      0.52281217	     21.92282944	      3.39878885	     -1.49378113	    -24.18322695	     16.93437816	     -4.59951313	     21.38423847	     -0.54774430	     -0.43767938	    -22.35788195	     17.26394333	      0.38818820	      2.92008829	      2.83033378	      5.97419767
      3.05000000	     -9.37157749	      1.82893737	    -19.82485055	      1.16322331	      0.98654075	      0.52346128	     21.57418204	      3.59719853	     -1.44669508	    -23.55923738	     16.90418178	     -4.93934609	     21.24417450	     -0.72598729	     -0.43601808	    -22.11974671	     17.43388613	      0.31718709	      3.12727131	      3.09964761	      5.76058585
      3.06000000	     -9.58170175	      1.70772018	    -19.83604727	      1.16504905	      0.98651289	      0.52402260	     21.28201979	      3.80451192	     -1.40726418	    -22.94089273	     16.88003781	     -5.01005940	     21.17599854	     -0.92281729	     -0.43667543	    -21.91273252	     17.55396242	      0.29771081	      3.38671486	      3.39457234	      5.58865020
      3.07000000	     -9.76269811	      1.58151816	    -19.81750028	      1.16687998	      0.98659352	      0.52445991	     20.95161094	      3.98833082	     -1.38756133	    -22.30555120	     16.82598171	     -5.08802559	     21.09091237	     -1.10040941	     -0.41683049	    -21.71795030	     17.65351491	      0.28764319	      3.61640915	      3.68813934	      5.39779409
      3.08000000	     -9.92329733	      1.45606658	    -19.78571229	      1.16869428	      0.98675535	      0.52479299	     20.60325100	      4.15151159	     -1.38103856	    -21.66492061	     16.74808440	     -5.15771498	     20.99287240	     -1.26452417	     -0.40914232	    -21.52327238	     17.73259956	      0.29193448	      3.82028773	      3.98064717	      5.20882798
      3.09000000	    -10.04995948	      1.32875508	    -19.75329083	      1.17051010	      0.98700104	      0.52508562	     20.22402935	      4.30024598	     -1.37885759	    -21.02931408	     16.65545736	     -5.22860462	     20.86303528	     -1.41922692	     -0.42050223	    -21.32905252	     17.80879143	      0.31603200	      3.98848297	      4.26263535	      5.01127911
      3.10000000	    -10.17651585	      1.21527599	    -19.72882028	      1.17228350	      0.98725211	      0.52534257	     19.85363474	      4.43625163	     -1.35806239	    -20.39313174	     16.56089880	     -5.26454253	     20.75015636	     -1.56009708	     -0.43150423	    -21.15326499	     17.85646281	      0.35187641	      4.15799585	      4.52676805	      4.86368863
      3.11000000	    -10.32183246	      1.12187208	    -19.71535624	      1.17398816	      0.98744835	      0.52557710	     19.52510379	      4.56311698	     -1.31304593	    -19.77594067	     16.46575056	     -5.26697597	     20.67703786	     -1.68843499	     -0.44203634	    -20.99888362	     17.87948160	      0.38074319	      4.34859840	      4.77083643	      4.75607549
      3.12000000	    -10.42695508	      1.01217716	    -19.71373316	      1.17567084	      0.98766894	      0.52581737	     19.17034213	      4.69296845	     -1.27962890	    -19.19309919	     16.36870478	     -5.28611574	     20.56215362	     -1.82667243	     -0.49157539	    -20.85072220	     17.95447449	      0.41989923	      4.48029952	      5.01428579	      4.61785743
      3.13000000	    -10.56355308	      0.93806174	    -19.73024264	      1.17724212	      0.98776540	      0.52604894	     18.89044807	      4.80715859	     -1.20466910	    -18.65439602	     16.29313850	     -5.28755381	     20.51283419	     -1.94066117	     -0.52215734	    -20.73905659	     17.99555301	      0.43701680	      4.64788471	      5.21846446	      4.54692885
      3.14000000	    -10.68522372	      0.86378754	    -19.76371231	      1.17874651	      0.98780774	      0.52630090	     18.63614103	      4.92121726	     -1.13055173	    -18.18409447	     16.23147792	     -5.29769520	     20.46171066	     -2.05721773	     -0.58020089	    -20.65070188	     18.07619354	      0.44540315	      4.78852740	      5.40742713	      4.46835531
      3.15000000	    -10.79383056	      0.80660757	    -19.81560264	      1.18016022	      0.98778135	      0.52657139	     18.42557744	      5.02033002	     -1.04387806	    -17.79875042	     16.19650030	     -5.31603250	     20.41949491	     -2.15804648	     -0.65193255	    -20.59026053	     18.16958157	      0.44278869	      4.90923204	      5.56003604	      4.40696656
      3.16000000	    -10.89272612	      0.78865524	    -19.87993349	      1.18146583	      0.98767001	      0.52684459	     18.28132571	      5.08256551	     -0.93775745	    -17.51872919	     16.21815874	     -5.33149016	     20.39643437	     -2.21848741	     -0.72388276	    -20.55239406	     18.26146748	      0.43177523	      5.02111606	      5.65315335	      4.33777077
      3.17000000	    -10.96710709	      0.74467676	    -19.98599493	      1.18269236	      0.98754630	      0.52720085	     18.15472184	      5.17450619	     -0.83800101	    -17.32327389	     16.20752912	     -5.36638335	     20.35793922	     -2.31630762	     -0.84673950	    -20.55544151	     18.39167524	      0.40594530	      5.08836646	      5.75555086	      4.34724802
      3.18000000	    -11.01933641	      0.73681195	    -20.11255601	      1.18381922	      0.98738927	      0.52758050	     18.07821922	      5.23138146	     -0.71478288	    -17.22851792	     16.24863510	     -5.40532549	     20.31693001	     -2.37491538	     -0.97286408	    -20.56820836	     18.51275993	      0.37785928	      5.13494665	      5.79987768	      4.35191254
      3.19000000	    -11.05451706	      0.74350943	    -20.25484807	      1.18486503	      0.98721323	      0.52798165	     18.03438686	      5.27312524	     -0.58706153	    -17.20668195	     16.31973309	     -5.43564707	     20.28096826	     -2.41794055	     -1.10089394	    -20.61090327	     18.64854088	      0.35084439	      5.16253752	      5.81194869	      4.37323398
      3.20000000	    -11.07137674	      0.75625570	    -20.44025653	      1.18585107	      0.98705438	      0.52844255	     18.02170369	      5.31566536	     -0.44430851	    -17.26638286	     16.38195073	     -5.46703465	     20.22304892	     -2.46394146	     -1.27598611	    -20.64850087	     18.78499240	      0.32019786	      5.16887078	      5.81085711	      4.43336116
      3.21000000	    -11.06655494	      0.78448993	    -20.66169811	      1.18681057	      0.98693958	      0.52895485	     18.01511256	      5.34781284	     -0.25343067	    -17.36547365	     16.42800335	     -5.50272661	     20.13679270	     -2.49737558	     -1.47989015	    -20.67136909	     18.87837021	      0.28653917	      5.16072516	      5.78295452	      4.54064226
      3.22000000	    -11.05058023	      0.81928523	    -20.88972833	      1.18773864	      0.98684061	      0.52947093	     18.02292405	      5.37059493	     -0.07311376	    -17.50301595	     16.49658444	     -5.53092294	     20.04388940	     -2.51993497	     -1.67753368	    -20.69832279	     18.99612819	      0.25499933	      5.14223754	      5.73994622	      4.65791962
      3.23000000	    -11.02659647	      0.86534302	    -21.13203041	      1.18865161	      0.98677045	      0.53001110	     18.04004861	      5.38457444	      0.12233708	    -17.66496921	     16.56095208	     -5.55244518	     19.93664514	     -2.53152851	     -1.87881928	    -20.70847987	     19.10402317	      0.22377625	      5.12173032	      5.67953004	      4.80270796
